<?xml version="1.0" encoding="UTF-8"?>
<svg width="805px" height="339px" viewBox="0 0 805 339" version="1.1" xmlns="http://www.w3.org/2000/svg" xmlns:xlink="http://www.w3.org/1999/xlink">
    <title>atnz logo blue_Linear_no strapline</title>
    <g id="Page-1" stroke="none" stroke-width="1" fill="none" fill-rule="evenodd">
        <g id="atnz-logo-blue_Linear_no-strapline" fill="#074B64" fill-rule="nonzero">
            <g id="Group" transform="translate(0.000000, 158.000000)">
                <path d="M207.6,135.2 L207.6,80.3 L234.1,80.3 L234.1,46.7 L207.6,46.7 L207.6,0.6 L167.1,23.7 L167.1,46.7 L154.8,46.7 L154.8,80.3 L167.1,80.3 L167.1,135.2 C167.1,151.1 171.2,162.4 179.3,168.9 C187.4,175.5 198.9,178.7 213.8,178.7 L234.4,178.7 L234.4,144.4 L220,144.4 C211.7,144.4 207.6,141.3 207.6,135.2 Z" id="Path"></path>
                <path d="M99.4,63.9 C90.4,51.4 77.5,45.2 60.7,45.2 C43.9,45.2 29.6,51.6 18,64.3 C6.3,77 0.4,93.2 0.4,112.9 C0.4,132.6 6.2,148.8 17.9,161.4 C29.6,174 43.6,180.3 60.1,180.3 C76.5,180.3 89.6,173.4 99.4,159.5 L99.4,178.7 L139.9,178.7 L139.9,46.6 L99.4,46.6 L99.4,63.9 Z M90.7,136.8 C84.9,142.5 78.1,145.3 70.6,145.3 C63,145.3 56.3,142.5 50.5,136.9 C44.7,131.3 41.7,123.3 41.7,112.9 C41.7,102.5 44.6,94.4 50.5,88.7 C56.3,83 63.1,80.2 70.6,80.2 C78.2,80.2 84.9,83 90.7,88.6 C96.5,94.2 99.5,102.2 99.5,112.6 C99.4,123.1 96.5,131.1 90.7,136.8 Z" id="Shape"></path>
                <path d="M329.4,45.2 C311.1,45.2 297.7,52.1 289.4,66 L289.4,46.6 L248.9,46.6 L248.9,178.7 L289.4,178.7 L289.4,107 C289.4,98.5 291.7,91.9 296.1,87.2 C300.6,82.5 306.8,80.2 314.7,80.2 C322.6,80.2 328.8,82.5 333.3,87.2 C337.8,91.9 340.1,98.4 340.1,107 L340.1,178.8 L380.4,178.8 L380.4,101.6 C380.4,84.2 375.7,70.5 366.3,60.4 C356.8,50.2 344.6,45.2 329.4,45.2 Z" id="Path"></path>
                <polygon id="Path" points="512.7 178.7 493.6 145.4 442.9 145.4 493.6 80 493.6 46.6 395.3 46.6 395.3 80 446 80 395.3 145.4 395.3 178.7"></polygon>
            </g>
            <path d="M783.5,69.8 L671,4.9 C670.1,4.4 668.9,4.4 667.9,4.9 L612.1,37.1 L558.5,6.1 C545.1,-1.6 529.1,-1.6 515.7,6.1 C502.3,13.8 494.3,27.7 494.3,43.2 L494.3,173.1 C494.3,174.2 494.9,175.2 495.8,175.7 L551.6,207.9 L551.6,269.8 C551.6,285.3 559.6,299.1 573,306.9 C579.7,310.8 587,312.7 594.4,312.7 C601.8,312.7 609.1,310.8 615.8,306.9 L728.3,241.9 C729.2,241.4 729.8,240.3 729.8,239.3 L729.8,174.9 L783.4,143.9 C796.8,136.2 804.800927,122.3 804.800927,106.8 C804.9,91.4 796.9,77.6 783.5,69.8 Z M553.2,71.1 C552.3,71.6 551.7,72.7 551.7,73.7 L551.7,200.9 L500.4,171.3 L500.4,43.1 C500.4,29.8 507.3,18 518.7,11.3 C530.2,4.7 543.9,4.7 555.4,11.3 L720.7,106.7 L669.4,136.3 L613.8,104.2 C613.6,104 613.4,103.9 613.1,103.8 L556.1,70.9 C555.3,70.6 554.1,70.6 553.2,71.1 Z M663.3,140 L615.1,167.8 L615.1,112.1 L663.3,140 Z M612.8,301.7 C601.3,308.3 587.6,308.3 576.1,301.7 C564.6,295.1 557.7,283.2 557.7,269.9 L557.7,206.3 C557.7,206.3 557.7,206.3 557.7,206.3 C557.7,206.3 557.7,206.3 557.7,206.3 L557.7,79.1 L609,108.7 L609,173.2 C609,173.2 609,173.3 609,173.3 L609,239.4 C609,240.5 609.6,241.5 610.5,242 C611,242.3 611.5,242.4 612,242.4 C612.5,242.4 613.1,242.3 613.5,242 L723.7,178.4 L723.7,237.5 L612.8,301.7 Z M780.4,138.7 L725.1,170.6 C725.1,170.6 725,170.6 725,170.6 L615,234.1 L615,174.9 L728.2,109.5 C729.1,109 729.7,107.9 729.7,106.9 C729.7,105.8 729.1,104.8 728.2,104.3 L618.2,40.6 L669.4,11 L780.4,75.1 C791.9,81.7 798.701072,93.6 798.701072,106.9 C798.8,120.2 791.9,132 780.4,138.7 Z" id="Shape"></path>
        </g>
    </g>
</svg>