<?xml version="1.0" encoding="UTF-8"?>
<svg width="280px" height="58px" viewBox="0 0 280 58" version="1.1" xmlns="http://www.w3.org/2000/svg" xmlns:xlink="http://www.w3.org/1999/xlink">
    <title>Competenz_Logo</title>
    <g id="Page-1" stroke="none" stroke-width="1" fill="none" fill-rule="evenodd">
        <g id="Competenz_Logo" fill="#363636" fill-rule="nonzero">
            <path d="M276.410659,15.311641 C275.996201,14.4637732 275.15306,13.9087424 274.210412,13.8632406 C273.267764,13.8177388 272.375085,14.2889813 271.88089,15.0929882 C271.386695,15.8969951 271.369349,16.9062742 271.835624,17.7267882 C273.626517,21.1018202 274.557235,24.8665046 274.545302,28.687237 C274.544459,32.5051722 273.614474,36.2655457 271.835624,39.6437588 C271.385702,40.4627421 271.412219,41.4606663 271.904999,42.2546002 C272.397779,43.0485342 273.280283,43.5151629 274.21387,43.4754282 C275.147457,43.4356934 275.987121,42.8957668 276.410659,42.0628331 C280.826179,33.6923843 280.826179,23.6820898 276.410659,15.311641 Z" id="Path"></path>
            <path d="M227.518654,28.687237 C227.508092,24.8661915 228.440153,21.1015267 230.232258,17.7267882 C230.899183,16.4623427 230.414796,14.896658 229.150351,14.2297335 C227.885905,13.562809 226.32022,14.0471955 225.653296,15.311641 C221.241876,23.6831042 221.241876,33.6913698 225.653296,42.0628331 C226.101839,42.9112719 226.983069,43.4418238 227.942777,43.4412347 C228.849729,43.4404155 229.69007,42.9648803 230.157757,42.1878138 C230.625443,41.4107474 230.652218,40.4455583 230.228331,39.6437588 C228.449629,36.2654893 227.519654,32.505153 227.518654,28.687237 L227.518654,28.687237 Z" id="Path"></path>
            <path d="M265.312763,3.81318373 C256.46896,-1.26858352 245.591068,-1.26858352 236.747265,3.81318373 C235.918558,4.26010365 235.397959,5.12183803 235.387892,6.06332179 C235.377825,7.00480555 235.879877,7.87747514 236.698838,8.34201357 C237.517799,8.80655201 238.524439,8.7896564 239.327349,8.29789621 C242.886256,6.24500588 246.921468,5.16172742 251.030014,5.15624123 L251.030014,5.15624123 C254.261592,5.15828696 257.45803,5.82671824 260.419635,7.1197756 L256.245161,14.3848527 C249.297402,11.8401116 241.526651,14.6688021 237.840624,21.0844292 C234.154597,27.5000562 235.624628,35.6379347 241.3223,40.3584853 L234.493128,52.2614306 L236.731557,53.5495091 C241.080065,56.0522618 246.008788,57.3711015 251.026087,57.3744741 L251.026087,57.3744741 C256.039987,57.3719355 260.965736,56.055875 265.312763,53.5573633 C266.14147,53.1104433 266.662069,52.248709 266.672136,51.3072252 C266.682203,50.3657414 266.180151,49.4930718 265.36119,49.0285334 C264.542229,48.563995 263.535589,48.5808906 262.732679,49.0726508 C256.279672,52.7886733 248.447146,53.2257562 241.620757,50.2507714 L245.814867,42.9542777 C253.078596,45.6409705 261.198024,42.4043891 264.621599,35.4575035 C265.045484,34.6291201 264.992001,33.6369391 264.481524,32.8589221 C263.971046,32.0809051 263.082173,31.6368456 262.153513,31.6959038 C261.224852,31.7549621 260.399393,32.3080446 259.991585,33.14446 C257.919494,37.2708025 253.283693,39.432705 248.790744,38.3679649 C244.297795,37.3032247 241.125169,33.2908794 241.125169,28.6734923 C241.125169,24.0561052 244.297795,20.0437599 248.790744,18.9790197 C253.283693,17.9142795 257.919494,20.0761821 259.991585,24.2025245 C260.640291,25.4652592 262.185144,25.9696907 263.454028,25.3330948 C264.722911,24.696499 265.242099,23.1565424 264.617672,21.8816269 C263.676639,19.9975558 262.35715,18.3278073 260.741655,16.9767181 L267.555119,5.10126227 L265.312763,3.81318373 Z" id="Path"></path>
            <path d="M17.9938289,32.7674614 C16.9466106,33.9063114 15.4909771,34.4757363 13.6269285,34.4757363 C12.4140327,34.5157391 11.211008,34.2453965 10.1318373,33.6903226 C9.19711354,33.1816638 8.39841069,32.4556928 7.80308555,31.5736325 C7.19607285,30.6695266 6.75584034,29.6640409 6.50322581,28.6047686 C6.23536141,27.4925242 6.10349475,26.3518776 6.11051893,25.2078541 C6.10309477,24.0184478 6.23489351,22.832259 6.50322581,21.6734923 C6.75190282,20.5884931 7.19208024,19.5565363 7.80308555,18.626087 C8.39553009,17.7374751 9.19461074,17.0057706 10.1318373,16.4936886 C11.211008,15.9386147 12.4140327,15.6682721 13.6269285,15.7082749 C15.0801791,15.7034 16.4911867,16.1968368 17.6246844,17.1063114 C18.1610953,17.5361733 18.6205576,18.0540643 18.9834502,18.6378682 C19.3448059,19.2151367 19.5828015,19.8609337 19.6824684,20.5346424 L25.5730715,20.5346424 C25.4255587,19.0360796 24.9767451,17.5827783 24.2535764,16.2619916 C23.5838698,15.0492459 22.6802176,13.9814146 21.5949509,13.1203366 C20.5000088,12.2703583 19.2636586,11.6202774 17.942777,11.2 C14.6407671,10.1901041 11.0900593,10.3622933 7.90126227,11.6869565 C6.26119208,12.397164 4.79622559,13.4573548 3.60897616,14.7932679 C2.42364946,16.1507279 1.51397024,17.7259936 0.930715288,19.431136 C0.296989147,21.2863946 -0.0177058146,23.2356445 0,25.1960729 C-0.0159599473,27.1191792 0.298865021,29.0307114 0.930715288,30.8471248 C1.51459939,32.5284028 2.42476538,34.0778203 3.60897616,35.4064516 C4.80238509,36.7208616 6.26685514,37.7605952 7.90126227,38.4538569 C9.71261378,39.2152596 11.6623005,39.5923595 13.6269285,39.5612903 C15.2317509,39.5790363 16.8270911,39.3131463 18.3394109,38.7758766 C19.7210743,38.2855747 20.9889067,37.5200657 22.0661992,36.5256662 C23.1474704,35.5144983 24.0188651,34.3001505 24.630575,32.9520337 C25.3010924,31.462676 25.7077019,29.868129 25.8322581,28.2395512 L19.941655,28.2395512 C19.7910057,29.9177386 19.1086126,31.5040274 17.9938289,32.7674614 L17.9938289,32.7674614 Z" id="Path"></path>
            <path d="M17.9938289,32.7674614 C16.9466106,33.9063114 15.4909771,34.4757363 13.6269285,34.4757363 C12.4140327,34.5157391 11.211008,34.2453965 10.1318373,33.6903226 C9.19711354,33.1816638 8.39841069,32.4556928 7.80308555,31.5736325 C7.19607285,30.6695266 6.75584034,29.6640409 6.50322581,28.6047686 C6.23536141,27.4925242 6.10349475,26.3518776 6.11051893,25.2078541 C6.10309477,24.0184478 6.23489351,22.832259 6.50322581,21.6734923 C6.75190282,20.5884931 7.19208024,19.5565363 7.80308555,18.626087 C8.39553009,17.7374751 9.19461074,17.0057706 10.1318373,16.4936886 C11.211008,15.9386147 12.4140327,15.6682721 13.6269285,15.7082749 C15.0801791,15.7034 16.4911867,16.1968368 17.6246844,17.1063114 C18.1610953,17.5361733 18.6205576,18.0540643 18.9834502,18.6378682 C19.3448059,19.2151367 19.5828015,19.8609337 19.6824684,20.5346424 L25.5730715,20.5346424 C25.4255587,19.0360796 24.9767451,17.5827783 24.2535764,16.2619916 C23.5838698,15.0492459 22.6802176,13.9814146 21.5949509,13.1203366 C20.5000088,12.2703583 19.2636586,11.6202774 17.942777,11.2 C14.6407671,10.1901041 11.0900593,10.3622933 7.90126227,11.6869565 C6.26119208,12.397164 4.79622559,13.4573548 3.60897616,14.7932679 C2.42364946,16.1507279 1.51397024,17.7259936 0.930715288,19.431136 C0.296989147,21.2863946 -0.0177058146,23.2356445 0,25.1960729 C-0.0159599473,27.1191792 0.298865021,29.0307114 0.930715288,30.8471248 C1.51459939,32.5284028 2.42476538,34.0778203 3.60897616,35.4064516 C4.80238509,36.7208616 6.26685514,37.7605952 7.90126227,38.4538569 C9.71261378,39.2152596 11.6623005,39.5923595 13.6269285,39.5612903 C15.2317509,39.5790363 16.8270911,39.3131463 18.3394109,38.7758766 C19.7210743,38.2855747 20.9889067,37.5200657 22.0661992,36.5256662 C23.1474704,35.5144983 24.0188651,34.3001505 24.630575,32.9520337 C25.3010924,31.462676 25.7077019,29.868129 25.8322581,28.2395512 L19.941655,28.2395512 C19.7910057,29.9177386 19.1086126,31.5040274 17.9938289,32.7674614 L17.9938289,32.7674614 Z" id="Path"></path>
            <path d="M46.0605891,21.2179523 C45.1295904,20.2836135 44.012332,19.555723 42.7814867,19.0816269 C41.4109374,18.5619659 39.9548395,18.3048508 38.4892006,18.3237027 C37.0284397,18.3019945 35.5769547,18.5592366 34.2126227,19.0816269 C31.7137272,20.0385113 29.7563206,22.0375038 28.8521739,24.5559607 C28.3463019,25.9554655 28.0975166,27.4348732 28.1178121,28.9228612 C28.0959742,30.4045671 28.3448419,31.8778103 28.8521739,33.2701262 C29.3094147,34.5128884 30.0240345,35.6450389 30.9492286,36.5924264 C31.8735193,37.5218292 32.986323,38.2422726 34.2126227,38.7051893 C35.5768191,39.2161482 37.024783,39.466578 38.4813464,39.4434783 C39.9454374,39.4647299 41.4007839,39.214405 42.7736325,38.7051893 C44.0061007,38.245373 45.1246591,37.5246732 46.0527349,36.5924264 C46.9766307,35.6440146 47.6910656,34.5121571 48.1497896,33.2701262 C48.6584592,31.8780598 48.9086589,30.4048092 48.8880785,28.9228612 C48.9071157,27.4346335 48.6569988,25.9552187 48.1497896,24.5559607 C47.6961966,23.3085971 46.9842591,22.171103 46.0605891,21.2179523 L46.0605891,21.2179523 Z M43.1467041,31.2712482 C43.0089844,31.9983204 42.7430378,32.6951005 42.3612903,33.3290323 C41.988312,33.9358338 41.4665424,34.4373273 40.8454418,34.7859748 C40.1211003,35.1700089 39.3085372,35.3568984 38.4892006,35.3279102 C37.6786168,35.3570741 36.8748702,35.1700302 36.1604488,34.7859748 C35.5483742,34.4322271 35.0341339,33.9314839 34.6642356,33.3290323 C34.2824881,32.6951005 34.0165415,31.9983204 33.8788219,31.2712482 C33.7200323,30.4959403 33.6410788,29.7064058 33.6431562,28.915007 C33.6434061,28.1237229 33.7223362,27.3344222 33.8788219,26.5587658 C34.0124582,25.8305438 34.2786771,25.1330502 34.6642356,24.5009818 C35.0429729,23.9056582 35.5552647,23.4068123 36.1604488,23.0440393 C36.8709113,22.6478525 37.676249,22.453648 38.4892006,22.4824684 C39.3108816,22.4537847 40.1250286,22.647823 40.8454418,23.0440393 C41.4596753,23.4018612 41.9794166,23.9014054 42.3612903,24.5009818 C42.7468489,25.1330502 43.0130678,25.8305438 43.1467041,26.5587658 C43.3031898,27.3344222 43.3821198,28.1237229 43.3823697,28.915007 C43.3844471,29.7064058 43.3054937,30.4959403 43.1467041,31.2712482 Z" id="Shape"></path>
            <path d="M105.461431,29.1192146 C105.460707,27.7347646 105.271787,26.3568382 104.89986,25.0232819 C104.57019,23.7810232 104.003456,22.6142177 103.230856,21.5870968 C102.472736,20.6005924 101.504099,19.7956304 100.395512,19.2308555 C99.1298554,18.6051255 97.7305977,18.2977741 96.3192146,18.3354839 C95.139461,18.322762 93.9719019,18.5750621 92.9026648,19.0737728 C91.8370457,19.5917787 90.9468032,20.4110202 90.342216,21.430014 L90.2636746,21.430014 L90.2636746,18.8695652 L85.0367461,18.8695652 L85.0367461,46.7517532 L85.0367461,46.7517532 C88.0731504,46.7517532 90.5346424,44.2902612 90.5346424,41.2538569 L90.5346424,36.454979 L90.6131837,36.454979 C91.2594981,37.4157369 92.1500521,38.1870082 93.1932679,38.6894811 C94.266918,39.1973964 95.4417808,39.4551948 96.629453,39.4434783 C99.214721,39.5289199 101.6816,38.3583961 103.250491,36.3018233 C104.003607,35.3147816 104.563233,34.1941974 104.89986,32.9991585 C105.270427,31.7390906 105.459518,30.4326405 105.461431,29.1192146 L105.461431,29.1192146 Z M99.712202,31.3301543 C99.5813741,32.0530172 99.314877,32.7445772 98.9267882,33.3683029 C98.551801,33.9494732 98.0461571,34.4349451 97.4502104,34.7859748 C95.3870125,35.9893818 92.7427631,35.3662917 91.4339411,33.3683029 C91.0402097,32.7441319 90.7634188,32.0534854 90.6171108,31.3301543 C90.4496907,30.5559275 90.3654354,29.7660345 90.3657629,28.973913 C90.3644997,28.1658546 90.4421,27.3596007 90.5974755,26.5666199 C90.7311978,25.838422 90.9974108,25.1409437 91.3828892,24.5088359 C91.7560292,23.917067 92.2598037,23.4186661 92.85554,23.0518934 C93.546519,22.6569606 94.3339202,22.4624901 95.1293128,22.4903226 C95.9106652,22.4657753 96.6833044,22.6602953 97.3598878,23.0518934 C97.9642903,23.424071 98.475972,23.9290378 98.856101,24.5284712 C99.2570044,25.1648769 99.5390876,25.8687543 99.6886396,26.6058906 C99.8573502,27.37998 99.9429218,28.1698714 99.9439319,28.9621318 C99.9457668,29.7572212 99.8681486,30.5505061 99.712202,31.3301543 L99.712202,31.3301543 Z" id="Shape"></path>
            <path d="M123.576999,37.8922861 C125.181861,36.8450678 126.373072,35.1237027 127.150631,32.7281907 L122.296774,32.7281907 C122.020818,33.4685806 121.499745,34.0922059 120.820196,34.4953717 C119.973444,35.0652654 118.969784,35.3563406 117.949509,35.3279102 C116.39439,35.3279102 115.203179,34.9273492 114.375877,34.1262272 C113.548574,33.3251052 113.095652,32.0304815 113.017111,30.2423562 L127.50014,30.2423562 C127.605515,28.7426008 127.472975,27.2356171 127.107433,25.7772791 C126.770604,24.4074856 126.170384,23.1163459 125.340252,21.9758766 C124.516382,20.8542143 123.440169,19.9421234 122.198597,19.313324 C120.812351,18.6267004 119.280062,18.2870901 117.73352,18.3237027 C116.301931,18.3059795 114.882103,18.5840625 113.562973,19.140533 C111.084769,20.1820105 109.150428,22.2059577 108.22216,24.7287518 C107.72248,26.0701013 107.472269,27.4915107 107.483871,28.9228612 C107.467119,30.3785067 107.710492,31.8254433 108.202525,33.1955119 C108.648613,34.4348363 109.342043,35.5705128 110.240673,36.5335203 C111.144289,37.4798949 112.245,38.2159368 113.464797,38.6894811 C114.827032,39.2091771 116.275678,39.4650556 117.73352,39.4434783 C119.791321,39.5106749 121.823449,38.9712323 123.576999,37.8922861 L123.576999,37.8922861 Z M113.27237,25.42777 C113.423498,24.9182673 113.672984,24.4433096 114.006732,24.0297335 C114.38947,23.5671779 114.865968,23.1910657 115.404769,22.9262272 C116.090987,22.6060266 116.843196,22.4526245 117.6,22.4785414 C118.943058,22.4785414 119.956241,22.8437588 120.608135,23.5663394 C121.260028,24.2889201 121.727349,25.3531557 121.986536,26.7511921 L113.017111,26.7511921 C113.0548,26.3022165 113.140372,25.8585556 113.27237,25.42777 L113.27237,25.42777 Z" id="Shape"></path>
            <path d="M137.145021,12.8493689 L136.984011,12.8493689 C134.030024,12.8493689 131.635344,15.2440489 131.635344,18.1980365 L131.635344,18.8695652 L128.293408,18.8695652 L128.293408,22.5570827 L131.635344,22.5570827 L131.635344,34.397195 C131.597744,35.2417565 131.770468,36.0824364 132.138008,36.8437588 C132.454442,37.4420345 132.931891,37.9398879 133.51641,38.2810659 C134.141584,38.6300896 134.82594,38.8604275 135.534923,38.9604488 C136.338526,39.0778594 137.14972,39.1356143 137.961851,39.1333102 C138.503787,39.1333102 139.061431,39.1333102 139.630856,39.0939691 C140.157157,39.0758809 140.6818,39.0247282 141.201683,38.9408135 L141.201683,34.6720898 C140.931799,34.7264633 140.659102,34.7657946 140.384853,34.7899018 C140.098177,34.8173913 139.803647,34.8291725 139.493408,34.8291725 C138.558766,34.8291725 137.922581,34.6720898 137.62805,34.3618513 C137.33352,34.0516129 137.160729,33.431136 137.160729,32.5004208 L137.160729,22.5570827 L141.185975,22.5570827 L141.185975,18.8695652 L137.145021,18.8695652 L137.145021,12.8493689 Z" id="Path"></path>
            <path d="M152.9554,39.4434783 C155.007255,39.5003797 157.030742,38.9542294 158.775316,37.8726508 C160.380178,36.8254324 161.571388,35.1040673 162.348948,32.7085554 L157.495091,32.7085554 C157.219586,33.4480214 156.700103,34.0714013 156.02244,34.4757363 C155.173916,35.0449785 154.169229,35.3359533 153.147826,35.3082749 C151.597943,35.3082749 150.406732,34.9077139 149.574194,34.1065919 C148.741655,33.3054698 148.288733,32.0108462 148.215428,30.2227209 L162.698457,30.2227209 C162.803832,28.7229655 162.671292,27.2159817 162.30575,25.7576438 C161.968921,24.3878503 161.368701,23.0967105 160.538569,21.9562412 C159.714699,20.834579 158.638486,19.9224881 157.396914,19.2936886 C156.012114,18.6069413 154.481062,18.2673065 152.935764,18.3040673 C151.502906,18.2863672 150.081801,18.5644386 148.76129,19.1208976 C146.283086,20.1623751 144.348745,22.1863224 143.420477,24.7091164 C142.922136,26.0507164 142.673257,27.4721182 142.686115,28.9032258 C142.668104,30.3586345 142.910145,31.8055642 143.400842,33.1758766 C143.846699,34.4161994 144.541645,35.552169 145.442917,36.513885 C146.344314,37.4610715 147.443946,38.1972888 148.663114,38.6698457 C150.031444,39.1991022 151.488393,39.4616995 152.9554,39.4434783 L152.9554,39.4434783 Z M148.490323,25.42777 C148.642917,24.9180801 148.89372,24.443154 149.228612,24.0297335 C149.609876,23.5672729 150.085078,23.1911272 150.622721,22.9262272 C151.308193,22.6139922 152.057494,22.4673605 152.810098,22.4981767 C154.157083,22.4981767 155.166339,22.8633941 155.818233,23.5859748 C156.470126,24.3085554 156.937447,25.372791 157.196634,26.7708275 L148.215428,26.7708275 C148.25811,26.3145015 148.350283,25.8641691 148.490323,25.42777 Z" id="Shape"></path>
            <path d="M81.3374474,22.1879383 C81.0189219,21.3342978 80.500472,20.5694158 79.8255259,19.9573633 C79.1519446,19.373756 78.3562261,18.9483887 77.4967742,18.7124825 C76.5354626,18.4447798 75.5414829,18.3126016 74.5436185,18.3197756 C73.2606249,18.2878269 71.9972511,18.6392198 70.915007,19.3290323 C69.96013,19.9373296 69.135266,20.7288254 68.4880785,21.657784 C68.0450004,20.5233048 67.1931941,19.5958447 66.1004208,19.0580645 C65.0108768,18.5577133 63.8238206,18.3055477 62.6249649,18.3197756 C61.4002902,18.2961384 60.1904909,18.5911454 59.1141655,19.1758766 C58.0669905,19.7669175 57.1695053,20.5905079 56.4908836,21.5831697 L56.4123422,21.5831697 L56.4123422,18.8656381 L51.2246844,18.8656381 L51.2246844,38.9368864 L56.7225806,38.9368864 L56.7225806,27.2931276 C56.69149,26.4760632 56.8361214,25.6618423 57.1467041,24.9054698 C57.3803934,24.3681419 57.7320511,23.8903169 58.1755961,23.5074334 C58.5408495,23.2043661 58.964615,22.9797837 59.4204769,22.8476858 C59.7544186,22.744797 60.1002344,22.6854012 60.4493689,22.6709677 C61.144553,22.6286424 61.8375284,22.7838471 62.4482468,23.1186536 C62.8860402,23.4011399 63.2250496,23.8128922 63.4182328,24.2967742 C63.6155073,24.8118209 63.7269452,25.355744 63.7481066,25.9068724 C63.771669,26.4880785 63.7873773,27.084993 63.7873773,27.6740533 L63.7873773,38.9329593 L69.2852735,38.9329593 L69.2852735,33.4350631 L69.2852735,33.4350631 L69.2852735,27.7604488 C69.2842298,27.1427582 69.3288582,26.5258357 69.4187938,25.9147265 C69.4965265,25.3419618 69.6817258,24.7890287 69.9646564,24.284993 C70.2322566,23.8027953 70.6189296,23.3971943 71.087798,23.1068724 C71.6626942,22.7863412 72.3151645,22.6313795 72.972791,22.6591865 C73.6101599,22.6309611 74.2441632,22.766143 74.8145863,23.0518934 C75.2524633,23.2935871 75.6101045,23.6580535 75.8434783,24.1004208 C76.0928231,24.5889617 76.2385521,25.123747 76.2715288,25.6712482 C76.3225806,26.2642356 76.3500701,26.9004208 76.3500701,27.5719495 L76.3500701,38.9604488 L81.8479663,38.9604488 L81.8479663,25.5063114 C81.8876114,24.3779468 81.7144208,23.2522077 81.3374474,22.1879383 Z" id="Path"></path>
            <path d="M170.203086,18.8067321 L170.203086,21.6106592 L170.316971,21.6106592 C170.950117,20.5052988 171.901075,19.6159132 173.046283,19.0580645 C174.114342,18.5425831 175.284741,18.2741431 176.470687,18.2726508 C177.712292,18.2301923 178.949895,18.435792 180.11108,18.8774194 C180.992431,19.2285484 181.765803,19.8055302 182.353436,20.5503506 C182.923411,21.3257323 183.314983,22.2174969 183.50014,23.1618513 C183.729519,24.2820168 183.840089,25.4232548 183.830014,26.5666199 L183.830014,38.9525947 L178.300701,38.9525947 L178.300701,27.5640954 C178.300701,25.9042543 178.038897,24.6646096 177.515288,23.8451613 C176.991678,23.0257129 176.075362,22.6172978 174.766339,22.6199158 C173.258345,22.6199158 172.170547,23.0676017 171.495091,23.9629734 C170.819635,24.858345 170.481907,26.3349229 170.481907,28.3887798 L170.481907,38.9447405 L164.944741,38.9447405 L164.944741,18.8067321 L170.203086,18.8067321 Z" id="Path"></path>
            <path d="M193.482749,34.7741935 C193.482749,33.140533 197.900701,30.0931276 201.270126,26.0914446 C203.017074,24.0635046 203.990768,21.4832161 204.019074,18.8067321 L187.058065,18.8067321 L187.058065,22.973352 L196.91108,22.973352 C196.91108,24.8190743 191.338569,28.6008415 189.056942,31.656101 C187.195512,34.1301543 186.307994,35.7088359 186.307994,38.9408135 L204.211501,38.9408135 C204.211501,36.6396528 202.346041,34.7741935 200.044881,34.7741935 L193.482749,34.7741935 Z" id="Path"></path>
        </g>
    </g>
</svg>