<svg xmlns="http://www.w3.org/2000/svg" xmlns:xlink="http://www.w3.org/1999/xlink" width="53" height="53" viewBox="0 0 53 53" version="1.1">
    <title>Competenz_monogram_1.0</title>
    <g id="Page-1" stroke="none" stroke-width="1" fill="none" fill-rule="evenodd">
        <g id="Competenz_monogram_1.0" fill="#1A1A1A" fill-rule="nonzero">
            <path d="M49.6588514,14.3207432 C49.2660765,13.5754944 48.505552,13.096399 47.6637602,13.0639277 C46.8219683,13.0314563 46.0267973,13.4505421 45.5777804,14.1633196 C45.1287635,14.876097 45.094117,15.7742782 45.4868919,16.519527 C47.1197403,19.5985954 47.9684235,23.0326875 47.9578378,26.5179054 C47.9570693,29.999468 47.1090191,33.4285402 45.4868919,36.5091216 C45.0766098,37.2559499 45.1007904,38.1659537 45.5501549,38.8899394 C45.9995194,39.6139251 46.804272,40.0394424 47.6556068,40.0032084 C48.5069416,39.9669744 49.2726281,39.4746171 49.6588514,38.7150676 C53.685349,31.0820827 53.685349,21.9537281 49.6588514,14.3207432 L49.6588514,14.3207432 Z" id="Path"/>
            <path d="M5.07439189,26.5179054 C5.0650563,23.0324021 5.91496508,19.5983279 7.54891892,16.519527 C7.96015057,15.7718222 7.93570771,14.8603593 7.48499329,14.1357694 C7.03427886,13.4111795 6.22750878,12.9863452 5.37503992,13.0246962 C4.52257106,13.0630472 3.75720787,13.5586088 3.37337838,14.3207432 C-0.649381281,21.9546531 -0.649381281,31.0811577 3.37337838,38.7150676 C3.78240341,39.4887561 4.58599426,39.9725647 5.46114865,39.9720275 C6.2881953,39.9712804 7.05449958,39.5376415 7.48098121,38.8290371 C7.90746285,38.1204327 7.93187911,37.24028 7.54533784,36.5091216 C5.92334575,33.4284888 5.07530402,29.9994505 5.07439189,26.5179054 Z" id="Path"/>
            <path d="M39.5387162,3.83175676 C31.4740818,-0.802290122 21.5545669,-0.802290122 13.4899324,3.83175676 C12.7342371,4.23930156 12.259505,5.02511432 12.2503247,5.88365027 C12.2411444,6.74218622 12.6989644,7.53797075 13.4457722,7.96158183 C14.19258,8.3851929 15.1105314,8.36978585 15.8427027,7.92135135 C19.0880582,6.04932739 22.7677551,5.06148932 26.5143243,5.05648649 L26.5143243,5.05648649 C29.4611897,5.05835197 32.3760114,5.66789227 35.0766892,6.84702703 L31.27,13.472027 C24.9343611,11.151486 17.8482391,13.7309595 14.4869631,19.5813488 C11.1256872,25.4317381 12.4662034,32.8526427 17.6618919,37.1572973 L11.4415541,48.0151351 L13.4791892,49.1897297 C17.4445796,51.4719817 21.9390663,52.6746273 26.5143243,52.6777027 L26.5143243,52.6777027 C31.0875664,52.6750129 35.5804011,51.4749482 39.5458784,49.1968919 C40.3202523,48.8004771 40.8137388,48.0101818 40.8300247,47.1403919 C40.8463107,46.270602 40.3827548,45.462387 39.6237634,45.0372615 C38.864772,44.6121359 37.9334444,44.6390501 37.2002703,45.1072973 C31.3157945,48.495926 24.17334,48.8945005 17.9483784,46.1816216 L21.7658108,39.5136486 C28.3838246,41.9614601 35.7818741,39.0173857 38.9084459,32.6916892 C39.3399246,31.9327935 39.3172143,30.9976952 38.8494043,30.2606402 C38.3815943,29.5235851 37.5451125,29.1049889 36.6747364,29.1723824 C35.8043604,29.239776 35.0422868,29.782149 34.6935135,30.5824324 C32.8039804,34.3452306 28.5766091,36.3166624 24.4795036,35.3457293 C20.382398,34.3747963 17.489291,30.7159518 17.489291,26.5053716 C17.489291,22.2947915 20.382398,18.635947 24.4795036,17.6650139 C28.5766091,16.6940808 32.8039804,18.6655127 34.6935135,22.4283108 C35.2850667,23.5797944 36.6938133,24.0397838 37.8509036,23.4592741 C39.007994,22.8787645 39.4814401,21.4744831 38.912027,20.3118919 C38.0539023,18.5938137 36.8506647,17.0711755 35.3775,15.8391216 L41.5978378,5.00993243 L39.5387162,3.83175676 Z" id="Path"/>
        </g>
    </g>
</svg>